<?xml version="1.0" encoding="iso-8859-1"?>
<!-- Generator: Adobe Illustrator 18.1.1, SVG Export Plug-In . SVG Version: 6.00 Build 0)  -->
<svg version="1.1" id="Capa_1" xmlns="http://www.w3.org/2000/svg" xmlns:xlink="http://www.w3.org/1999/xlink" x="0px" y="0px"
	 viewBox="0 0 582.625 582.625" style="enable-background:new 0 0 582.625 582.625;" xml:space="preserve">
<g>
	<g>
		<path style="fill:#010002;" d="M455.328,443.699c19.584-20.807,34.373-44.166,44.369-70.07
			c9.996-25.908,15.402-52.734,16.219-80.48l-22.031,13.463c-2.857-0.408-5.307-0.609-7.348-0.609c-4.484,0-6.729,1.428-6.729,4.281
			l9.18,3.672c1.631,0.816,2.652,1.635,3.063,2.449c1.223,3.672,0.404,7.955-2.449,12.854l-4.896,7.344
			c-1.223,1.633-2.445,3.061-3.672,4.285l-4.281,4.283l-4.283,4.281c0,1.227-0.105,2.553-0.309,3.98
			c-0.205,1.426-0.307,2.957-0.307,4.59c0,3.264-0.713,6.834-2.141,10.709c-1.432,3.877-3.162,7.855-5.203,11.936v7.955
			c-0.816,2.855-1.734,5.406-2.754,7.65c-1.021,2.244-1.938,4.59-2.754,7.037c-0.816,2.041-1.734,4.08-2.756,6.121
			c-1.02,2.039-1.732,4.283-2.143,6.729c-1.223,10.609-5.916,20.4-14.076,29.377c-11.016,11.018-20.195,15.912-27.539,14.688
			c-3.672-0.816-6.426-3.063-8.262-6.732s-3.162-7.139-3.98-10.4c-0.404-0.408-0.609-1.227-0.609-2.449l-2.447-4.896
			c0,0-0.816-1.836-2.449-5.508c-2.039-4.895-4.08-9.893-6.119-14.994c-2.041-5.1-2.65-10.506-1.836-16.217
			c0-0.814,0.104-1.836,0.309-3.061c0.203-1.227,0.305-2.447,0.305-3.672c0.816-4.488,1.326-8.873,1.531-13.158
			c0.203-4.283-0.715-8.67-2.754-13.158l-1.836-3.672c-1.635-3.266-2.756-6.324-3.367-9.18s0.102-6.732,2.143-11.631
			c0-0.404-1.732-1.02-5.203-1.836c-3.467-0.813-9.482-1.223-18.053-1.223h-4.896h-1.836c-17.545,0-28.563-10.609-33.051-31.824
			c-2.445-13.465,0.205-26.316,7.957-38.556c0.408-0.816,0.611-1.836,0.611-3.06c0-2.856,0.205-4.896,0.613-6.12
			c2.039-0.408,3.566-1.122,4.59-2.142c1.02-1.02,1.938-2.142,2.754-3.366l2.447-4.896c4.486-0.408,9.793-1.122,15.912-2.142
			c6.117-1.02,12.441-1.836,18.973-2.448c6.527-0.612,12.545-0.816,18.053-0.612s9.896,1.122,13.158,2.754
			c2.855,2.04,5.713,3.876,8.568,5.508c5.713,3.672,10.605,6.12,14.688,7.344l17.137-11.628
			c-3.672-6.528-7.141-11.424-10.402-14.688c-3.266-3.264-5.916-5.712-7.955-7.344c-2.449-1.632-4.693-2.652-6.732-3.06
			c-2.447,0.408-4.689,1.021-6.73,1.836c-4.08,1.224-7.955,4.08-11.627,8.568l-40.395-3.672c-2.041,2.04-4.488,3.366-7.344,3.978
			c-2.857,0.612-5.305,1.122-7.344,1.53c-2.857,0.408-5.512,0.612-7.957,0.612c-0.816-4.08-1.836-7.548-3.063-10.404
			c-2.445-4.896-3.771-8.67-3.977-11.322c-0.205-2.652,0.305-4.794,1.527-6.426c1.227-1.632,2.756-3.06,4.592-4.284
			s3.363-3.06,4.59-5.508c1.225-2.448,1.938-4.896,2.143-7.344c0.203-2.448,0.611-5.508,1.227-9.18
			c0.609-3.672,1.836-8.058,3.672-13.158c1.836-5.1,4.998-11.322,9.482-18.666c2.857-4.896,7.348-8.977,13.467-12.24
			c6.117-3.264,12.852-5.916,20.193-7.956c7.344-2.04,14.895-3.57,22.646-4.59s15.096-1.734,22.031-2.142
			c-14.279-12.24-28.969-22.44-44.063-30.6c-3.264,0-6.426-0.306-9.486-0.918c-3.061-0.612-6.018-1.326-8.875-2.142
			c-5.711-1.224-11.424-2.142-17.135-2.754c-5.713-0.612-11.221,0.102-16.523,2.142c-2.039,0.816-3.979,1.734-5.813,2.754
			s-3.773,2.142-5.814,3.366c-2.854,2.04-5.813,3.774-8.873,5.202c-3.061,1.428-6.223,2.346-9.484,2.754
			c-2.041,0.408-3.98,0.714-5.814,0.918c-1.836,0.204-3.771,0.306-5.813,0.306c-14.28,0-28.663-2.55-43.146-7.65
			s-27.03-10.506-37.638-16.218c-24.48,8.16-47.124,20.604-67.932,37.332c6.936-0.816,13.974-0.918,21.114-0.306
			s11.934,3.774,14.382,9.486c2.448,5.304,6.12,10.302,11.016,14.994s10.2,8.874,15.912,12.546c1.632,0.816,4.08,1.428,7.344,1.836
			c0.816,0.408,3.06,2.04,6.732,4.896c0.408,0,0.816,0.204,1.224,0.612s1.02,0.816,1.836,1.224l5.508,1.836
			c4.896-1.632,8.772-0.612,11.628,3.061c2.448,1.224,4.896,2.652,7.344,4.284c2.04,1.632,4.386,3.672,7.038,6.12
			s4.998,5.304,7.038,8.568c-2.448,4.08-5.304,8.16-8.568,12.24l-4.896,6.12c-0.816,0.816-1.836,1.632-3.06,2.448
			s-2.652,1.632-4.284,2.448c0,0.408,0.102,0.612,0.306,0.612s0.306,0.204,0.306,0.612c1.632,2.448,1.02,4.488-1.836,6.12
			c-3.264,1.632-6.936,2.448-11.016,2.448l-6.12,1.224c0,0-1.428,0.816-4.284,2.448c0,0.408-0.612,0.816-1.836,1.224
			c-1.632,0.408-3.06,1.428-4.284,3.06c-2.448,2.448-4.284,6.936-5.508,13.464c-0.408,1.632-1.224,3.264-2.448,4.896
			c1.224,10.608,1.53,19.992,0.918,28.152s-3.162,12.648-7.65,13.464c-2.04,0.408-4.488,0-7.344-1.224
			c-2.856-0.816-6.324-2.346-10.404-4.59s-8.976-5.61-14.688-10.098c0.408,2.04,0.918,3.978,1.53,5.814s1.326,3.57,2.142,5.202
			s1.428,3.468,1.836,5.508c1.224,0,2.346-0.102,3.366-0.306s1.938-0.306,2.754-0.306c2.04,0,3.468,0.816,4.284,2.448
			c0.816,2.04,0.612,3.672-0.612,4.897l-1.53,3.059c0,0-0.102,0.408-0.306,1.227l3.672,1.836c2.448,1.633,4.08,3.061,4.896,4.281
			c0.816,0,1.428,0.105,1.836,0.309c0.408,0.205,1.02,0.307,1.836,0.307c4.488,0,9.69-0.307,15.606-0.918
			c5.916-0.613,12.036-0.715,18.36-0.307s12.648,1.836,18.972,4.283s12.342,6.938,18.054,13.465
			c5.712,6.119,11.628,11.221,17.748,15.301c6.119,4.08,11.627,7.648,16.523,10.709s8.875,6.121,11.934,9.18
			c3.063,3.063,4.592,6.631,4.592,10.711c0,8.16-0.512,16.219-1.529,24.176c-1.021,7.953-2.145,13.564-3.365,16.828
			c-0.816,3.674-4.285,8.672-10.404,14.994c-6.119,6.324-13.26,12.139-21.42,17.441c-2.856,2.447-5.508,5.305-7.956,8.568
			c-2.04,2.854-3.978,6.426-5.814,10.709s-2.754,9.484-2.754,15.605c-3.264,5.303-5.916,10.199-7.956,14.688
			c-2.04,4.486-3.876,8.363-5.508,11.629c-1.632,4.08-3.264,7.549-4.896,10.402c38.76,7.346,76.398,4.896,112.914-7.344
			C397.902,492.66,429.217,472.26,455.328,443.699z M206.244,499.393c0.408-6.529,1.02-14.076,1.836-22.646
			c0.816-8.566,1.632-17.031,2.448-25.396c0.816-8.363,1.53-15.813,2.142-22.338c0.612-6.527,1.122-11.018,1.53-13.463
			c0.408-4.488-1.428-9.793-5.508-15.912l-3.672-5.508c-3.264-5.307-6.63-11.223-10.098-17.748
			c-3.468-6.529-5.406-14.281-5.814-23.256c-0.408-8.16-0.306-14.076,0.306-17.748c0.612-3.676,0.918-6.529,0.918-8.568
			c-0.816-0.816-1.53-1.428-2.142-1.836s-1.326-0.816-2.142-1.225c-2.856-2.855-5.1-4.896-6.732-6.119
			c-2.856-2.857-5.1-4.896-6.732-6.121c-7.344-3.672-15.096-6.426-23.256-8.264c-8.16-1.836-15.708-4.387-22.644-7.648
			c-2.856-1.227-6.732-3.063-11.628-5.508c-4.896-2.446-9.996-5.508-15.3-9.18s-10.608-7.956-15.912-12.852
			s-9.792-10.404-13.464-16.524c-3.264,20.808-3.774,41.718-1.53,62.729s7.446,41.719,15.606,62.119
			c11.424,28.148,27.642,52.836,48.654,74.051C154.122,471.648,178.5,487.969,206.244,499.393z M291.312,0
			c39.985,0,77.723,7.65,113.219,22.95s66.402,36.108,92.719,62.424c26.317,26.316,47.125,57.222,62.426,92.718
			s22.949,73.236,22.949,113.22c0,39.985-7.648,77.723-22.949,113.219s-36.107,66.402-62.426,92.721
			c-26.314,26.314-57.223,47.123-92.719,62.424s-73.232,22.949-113.219,22.949c-39.984,0-77.724-7.648-113.22-22.949
			c-35.496-15.301-66.402-36.107-92.718-62.424c-26.316-26.317-47.124-57.225-62.424-92.721S0,331.299,0,291.312
			c0-39.984,7.65-77.724,22.95-113.22s36.108-66.402,62.424-92.718s57.222-47.124,92.718-62.424C213.588,7.65,251.328,0,291.312,0z"
			/>
	</g>
</g>
<g>
</g>
<g>
</g>
<g>
</g>
<g>
</g>
<g>
</g>
<g>
</g>
<g>
</g>
<g>
</g>
<g>
</g>
<g>
</g>
<g>
</g>
<g>
</g>
<g>
</g>
<g>
</g>
<g>
</g>
</svg>
